<svg width="209" height="27" viewBox="0 0 209 27" fill="none" xmlns="http://www.w3.org/2000/svg">
<g filter="url(#filter0_d_1_2)">
<path d="M14.4141 12.3398H17.918C17.8477 13.4883 17.5312 14.5078 16.9688 15.3984C16.4141 16.2891 15.6367 16.9844 14.6367 17.4844C13.6445 17.9844 12.4492 18.2344 11.0508 18.2344C9.95703 18.2344 8.97656 18.0469 8.10938 17.6719C7.24219 17.2891 6.5 16.7422 5.88281 16.0312C5.27344 15.3203 4.80859 14.4609 4.48828 13.4531C4.16797 12.4453 4.00781 11.3164 4.00781 10.0664V8.88281C4.00781 7.63281 4.17188 6.50391 4.5 5.49609C4.83594 4.48047 5.3125 3.61719 5.92969 2.90625C6.55469 2.19531 7.30078 1.64844 8.16797 1.26562C9.03516 0.882812 10.0039 0.691406 11.0742 0.691406C12.4961 0.691406 13.6953 0.949219 14.6719 1.46484C15.6562 1.98047 16.418 2.69141 16.957 3.59766C17.5039 4.50391 17.832 5.53516 17.9414 6.69141H14.4258C14.3867 6.00391 14.25 5.42188 14.0156 4.94531C13.7812 4.46094 13.4258 4.09766 12.9492 3.85547C12.4805 3.60547 11.8555 3.48047 11.0742 3.48047C10.4883 3.48047 9.97656 3.58984 9.53906 3.80859C9.10156 4.02734 8.73438 4.35938 8.4375 4.80469C8.14062 5.25 7.91797 5.8125 7.76953 6.49219C7.62891 7.16406 7.55859 7.95312 7.55859 8.85938V10.0664C7.55859 10.9492 7.625 11.7266 7.75781 12.3984C7.89062 13.0625 8.09375 13.625 8.36719 14.0859C8.64844 14.5391 9.00781 14.8828 9.44531 15.1172C9.89062 15.3438 10.4258 15.457 11.0508 15.457C11.7852 15.457 12.3906 15.3398 12.8672 15.1055C13.3438 14.8711 13.707 14.5234 13.957 14.0625C14.2148 13.6016 14.3672 13.0273 14.4141 12.3398ZM28.8286 0V18H25.4536V0H28.8286ZM28.3481 11.2148H27.4223C27.4302 10.332 27.5473 9.51953 27.7739 8.77734C28.0005 8.02734 28.3247 7.37891 28.7466 6.83203C29.1684 6.27734 29.6723 5.84766 30.2583 5.54297C30.852 5.23828 31.5083 5.08594 32.227 5.08594C32.852 5.08594 33.4184 5.17578 33.9263 5.35547C34.4419 5.52734 34.8833 5.80859 35.2505 6.19922C35.6255 6.58203 35.9145 7.08594 36.1177 7.71094C36.3208 8.33594 36.4223 9.09375 36.4223 9.98438V18H33.0239V9.96094C33.0239 9.39844 32.9419 8.95703 32.7778 8.63672C32.6216 8.30859 32.3911 8.07812 32.0864 7.94531C31.7895 7.80469 31.4223 7.73438 30.9848 7.73438C30.5005 7.73438 30.0864 7.82422 29.7427 8.00391C29.4067 8.18359 29.1372 8.43359 28.9341 8.75391C28.7309 9.06641 28.5825 9.43359 28.4888 9.85547C28.395 10.2773 28.3481 10.7305 28.3481 11.2148ZM48.0713 5.32031V18H44.6845V5.32031H48.0713ZM44.4736 2.01562C44.4736 1.52344 44.6455 1.11719 44.9892 0.796875C45.333 0.476563 45.7939 0.316406 46.372 0.316406C46.9423 0.316406 47.3994 0.476563 47.7431 0.796875C48.0947 1.11719 48.2705 1.52344 48.2705 2.01562C48.2705 2.50781 48.0947 2.91406 47.7431 3.23438C47.3994 3.55469 46.9423 3.71484 46.372 3.71484C45.7939 3.71484 45.333 3.55469 44.9892 3.23438C44.6455 2.91406 44.4736 2.50781 44.4736 2.01562ZM59.9428 0V18H56.5561V0H59.9428ZM74.0878 18.2344C73.1034 18.2344 72.2206 18.0781 71.4394 17.7656C70.6581 17.4453 69.9941 17.0039 69.4472 16.4414C68.9081 15.8789 68.4941 15.2266 68.205 14.4844C67.9159 13.7344 67.7714 12.9375 67.7714 12.0938V11.625C67.7714 10.6641 67.9081 9.78516 68.1816 8.98828C68.455 8.19141 68.8456 7.5 69.3534 6.91406C69.8691 6.32812 70.4941 5.87891 71.2284 5.56641C71.9628 5.24609 72.7909 5.08594 73.7128 5.08594C74.6113 5.08594 75.4081 5.23438 76.1034 5.53125C76.7988 5.82812 77.3808 6.25 77.8495 6.79688C78.3261 7.34375 78.6855 8 78.9277 8.76562C79.1698 9.52344 79.2909 10.3672 79.2909 11.2969V12.7031H69.2128V10.4531H75.9745V10.1953C75.9745 9.72656 75.8886 9.30859 75.7167 8.94141C75.5527 8.56641 75.3027 8.26953 74.9667 8.05078C74.6308 7.83203 74.2011 7.72266 73.6777 7.72266C73.2323 7.72266 72.8495 7.82031 72.5292 8.01562C72.2089 8.21094 71.9472 8.48438 71.7441 8.83594C71.5488 9.1875 71.4003 9.60156 71.2988 10.0781C71.205 10.5469 71.1581 11.0625 71.1581 11.625V12.0938C71.1581 12.6016 71.2284 13.0703 71.3691 13.5C71.5175 13.9297 71.7245 14.3008 71.9902 14.6133C72.2636 14.9258 72.5917 15.168 72.9745 15.3398C73.3652 15.5117 73.8066 15.5977 74.2988 15.5977C74.9081 15.5977 75.4745 15.4805 75.998 15.2461C76.5292 15.0039 76.9863 14.6406 77.3691 14.1562L79.0097 15.9375C78.7441 16.3203 78.3808 16.6875 77.9198 17.0391C77.4667 17.3906 76.9198 17.6797 76.2792 17.9062C75.6386 18.125 74.9081 18.2344 74.0878 18.2344ZM93.5766 15.1406V9.49219C93.5766 9.08594 93.5102 8.73828 93.3773 8.44922C93.2445 8.15234 93.0375 7.92188 92.7562 7.75781C92.4828 7.59375 92.1273 7.51172 91.6898 7.51172C91.3148 7.51172 90.9906 7.57812 90.7172 7.71094C90.4437 7.83594 90.2328 8.01953 90.0844 8.26172C89.9359 8.49609 89.8617 8.77344 89.8617 9.09375H86.4867C86.4867 8.55469 86.6117 8.04297 86.8617 7.55859C87.1117 7.07422 87.475 6.64844 87.9516 6.28125C88.4281 5.90625 88.9945 5.61328 89.6508 5.40234C90.3148 5.19141 91.057 5.08594 91.8773 5.08594C92.8617 5.08594 93.7367 5.25 94.5023 5.57812C95.268 5.90625 95.8695 6.39844 96.307 7.05469C96.7523 7.71094 96.975 8.53125 96.975 9.51562V14.9414C96.975 15.6367 97.018 16.207 97.1039 16.6523C97.1898 17.0898 97.3148 17.4727 97.4789 17.8008V18H94.0687C93.9047 17.6562 93.7797 17.2266 93.6937 16.7109C93.6156 16.1875 93.5766 15.6641 93.5766 15.1406ZM94.0219 10.2773L94.0453 12.1875H92.1586C91.7133 12.1875 91.3266 12.2383 90.9984 12.3398C90.6703 12.4414 90.4008 12.5859 90.1898 12.7734C89.9789 12.9531 89.8227 13.1641 89.7211 13.4062C89.6273 13.6484 89.5805 13.9141 89.5805 14.2031C89.5805 14.4922 89.6469 14.7539 89.7797 14.9883C89.9125 15.2148 90.1039 15.3945 90.3539 15.5273C90.6039 15.6523 90.8969 15.7148 91.2328 15.7148C91.7406 15.7148 92.182 15.6133 92.557 15.4102C92.932 15.207 93.2211 14.957 93.4242 14.6602C93.6352 14.3633 93.7445 14.082 93.7523 13.8164L94.643 15.2461C94.518 15.5664 94.3461 15.8984 94.1273 16.2422C93.9164 16.5859 93.6469 16.9102 93.3187 17.2148C92.9906 17.5117 92.5961 17.7578 92.1352 17.9531C91.6742 18.1406 91.1273 18.2344 90.4945 18.2344C89.6898 18.2344 88.9594 18.0742 88.3031 17.7539C87.6547 17.4258 87.1391 16.9766 86.7562 16.4062C86.3812 15.8281 86.1937 15.1719 86.1937 14.4375C86.1937 13.7734 86.3187 13.1836 86.5687 12.668C86.8187 12.1523 87.1859 11.7188 87.6703 11.3672C88.1625 11.0078 88.7758 10.7383 89.5102 10.5586C90.2445 10.3711 91.0961 10.2773 92.0648 10.2773H94.0219ZM108.401 8.02734V18H105.026V5.32031H108.19L108.401 8.02734ZM107.909 11.2148H106.995C106.995 10.2773 107.116 9.43359 107.358 8.68359C107.6 7.92578 107.94 7.28125 108.378 6.75C108.815 6.21094 109.335 5.80078 109.936 5.51953C110.546 5.23047 111.225 5.08594 111.975 5.08594C112.569 5.08594 113.112 5.17188 113.604 5.34375C114.097 5.51562 114.518 5.78906 114.87 6.16406C115.229 6.53906 115.503 7.03516 115.69 7.65234C115.886 8.26953 115.983 9.02344 115.983 9.91406V18H112.585V9.90234C112.585 9.33984 112.507 8.90234 112.35 8.58984C112.194 8.27734 111.964 8.05859 111.659 7.93359C111.362 7.80078 110.995 7.73438 110.558 7.73438C110.104 7.73438 109.71 7.82422 109.374 8.00391C109.046 8.18359 108.772 8.43359 108.554 8.75391C108.343 9.06641 108.183 9.43359 108.073 9.85547C107.964 10.2773 107.909 10.7305 107.909 11.2148Z" fill="#B91C1C"/>
<path d="M131.91 0.9375V18H128.406V0.9375H131.91ZM137.16 0.9375V3.69141H123.238V0.9375H137.16ZM141.894 11.7891V11.543C141.894 10.6133 142.027 9.75781 142.293 8.97656C142.558 8.1875 142.945 7.50391 143.453 6.92578C143.961 6.34766 144.586 5.89844 145.328 5.57812C146.07 5.25 146.922 5.08594 147.883 5.08594C148.844 5.08594 149.699 5.25 150.449 5.57812C151.199 5.89844 151.828 6.34766 152.336 6.92578C152.851 7.50391 153.242 8.1875 153.508 8.97656C153.773 9.75781 153.906 10.6133 153.906 11.543V11.7891C153.906 12.7109 153.773 13.5664 153.508 14.3555C153.242 15.1367 152.851 15.8203 152.336 16.4062C151.828 16.9844 151.203 17.4336 150.461 17.7539C149.719 18.0742 148.867 18.2344 147.906 18.2344C146.945 18.2344 146.09 18.0742 145.34 17.7539C144.598 17.4336 143.969 16.9844 143.453 16.4062C142.945 15.8203 142.558 15.1367 142.293 14.3555C142.027 13.5664 141.894 12.7109 141.894 11.7891ZM145.269 11.543V11.7891C145.269 12.3203 145.316 12.8164 145.41 13.2773C145.504 13.7383 145.652 14.1445 145.855 14.4961C146.066 14.8398 146.34 15.1094 146.676 15.3047C147.012 15.5 147.422 15.5977 147.906 15.5977C148.375 15.5977 148.777 15.5 149.113 15.3047C149.449 15.1094 149.719 14.8398 149.922 14.4961C150.125 14.1445 150.273 13.7383 150.367 13.2773C150.469 12.8164 150.519 12.3203 150.519 11.7891V11.543C150.519 11.0273 150.469 10.543 150.367 10.0898C150.273 9.62891 150.121 9.22266 149.91 8.87109C149.707 8.51172 149.437 8.23047 149.101 8.02734C148.765 7.82422 148.359 7.72266 147.883 7.72266C147.406 7.72266 147 7.82422 146.664 8.02734C146.336 8.23047 146.066 8.51172 145.855 8.87109C145.652 9.22266 145.504 9.62891 145.41 10.0898C145.316 10.543 145.269 11.0273 145.269 11.543ZM169 14.9648V5.32031H172.375V18H169.2L169 14.9648ZM169.375 12.3633L170.371 12.3398C170.371 13.1836 170.274 13.9688 170.078 14.6953C169.883 15.4141 169.59 16.0391 169.2 16.5703C168.809 17.0938 168.317 17.5039 167.723 17.8008C167.129 18.0898 166.43 18.2344 165.625 18.2344C165.008 18.2344 164.438 18.1484 163.914 17.9766C163.399 17.7969 162.953 17.5195 162.578 17.1445C162.211 16.7617 161.922 16.2734 161.711 15.6797C161.508 15.0781 161.407 14.3555 161.407 13.5117V5.32031H164.782V13.5352C164.782 13.9102 164.825 14.2266 164.91 14.4844C165.004 14.7422 165.133 14.9531 165.297 15.1172C165.461 15.2812 165.653 15.3984 165.871 15.4688C166.098 15.5391 166.348 15.5742 166.621 15.5742C167.317 15.5742 167.864 15.4336 168.262 15.1523C168.668 14.8711 168.953 14.4883 169.117 14.0039C169.289 13.5117 169.375 12.9648 169.375 12.3633ZM183.848 8.08594V18H180.473V5.32031H183.649L183.848 8.08594ZM187.669 5.23828L187.61 8.36719C187.446 8.34375 187.247 8.32422 187.012 8.30859C186.786 8.28516 186.579 8.27344 186.391 8.27344C185.915 8.27344 185.501 8.33594 185.149 8.46094C184.805 8.57812 184.516 8.75391 184.282 8.98828C184.055 9.22266 183.884 9.50781 183.766 9.84375C183.657 10.1797 183.595 10.5625 183.579 10.9922L182.899 10.7812C182.899 9.96094 182.981 9.20703 183.145 8.51953C183.309 7.82422 183.548 7.21875 183.86 6.70312C184.18 6.1875 184.571 5.78906 185.032 5.50781C185.493 5.22656 186.02 5.08594 186.614 5.08594C186.802 5.08594 186.993 5.10156 187.188 5.13281C187.384 5.15625 187.544 5.19141 187.669 5.23828ZM201.638 14.4961C201.638 14.2539 201.568 14.0352 201.427 13.8398C201.286 13.6445 201.025 13.4648 200.642 13.3008C200.267 13.1289 199.724 12.9727 199.013 12.832C198.372 12.6914 197.775 12.5156 197.22 12.3047C196.673 12.0859 196.197 11.8242 195.79 11.5195C195.392 11.2148 195.079 10.8555 194.853 10.4414C194.626 10.0195 194.513 9.53906 194.513 9C194.513 8.46875 194.626 7.96875 194.853 7.5C195.087 7.03125 195.419 6.61719 195.849 6.25781C196.286 5.89062 196.818 5.60547 197.443 5.40234C198.075 5.19141 198.786 5.08594 199.575 5.08594C200.677 5.08594 201.622 5.26172 202.411 5.61328C203.208 5.96484 203.818 6.44922 204.24 7.06641C204.669 7.67578 204.884 8.37109 204.884 9.15234H201.509C201.509 8.82422 201.439 8.53125 201.298 8.27344C201.165 8.00781 200.954 7.80078 200.665 7.65234C200.384 7.49609 200.017 7.41797 199.564 7.41797C199.189 7.41797 198.865 7.48438 198.591 7.61719C198.318 7.74219 198.107 7.91406 197.958 8.13281C197.818 8.34375 197.747 8.57812 197.747 8.83594C197.747 9.03125 197.786 9.20703 197.865 9.36328C197.95 9.51172 198.087 9.64844 198.275 9.77344C198.462 9.89844 198.704 10.0156 199.001 10.125C199.306 10.2266 199.681 10.3203 200.126 10.4062C201.04 10.5938 201.857 10.8398 202.575 11.1445C203.294 11.4414 203.865 11.8477 204.286 12.3633C204.708 12.8711 204.919 13.5391 204.919 14.3672C204.919 14.9297 204.794 15.4453 204.544 15.9141C204.294 16.3828 203.935 16.793 203.466 17.1445C202.997 17.4883 202.435 17.7578 201.779 17.9531C201.13 18.1406 200.4 18.2344 199.587 18.2344C198.408 18.2344 197.408 18.0234 196.587 17.6016C195.775 17.1797 195.158 16.6445 194.736 15.9961C194.322 15.3398 194.115 14.668 194.115 13.9805H197.314C197.329 14.4414 197.447 14.8125 197.665 15.0938C197.892 15.375 198.177 15.5781 198.521 15.7031C198.872 15.8281 199.251 15.8906 199.658 15.8906C200.095 15.8906 200.458 15.832 200.747 15.7148C201.036 15.5898 201.255 15.4258 201.404 15.2227C201.56 15.0117 201.638 14.7695 201.638 14.4961Z" fill="black"/>
</g>
<defs>
<filter id="filter0_d_1_2" x="0.0078125" y="0" width="208.911" height="26.2344" filterUnits="userSpaceOnUse" color-interpolation-filters="sRGB">
<feFlood flood-opacity="0" result="BackgroundImageFix"/>
<feColorMatrix in="SourceAlpha" type="matrix" values="0 0 0 0 0 0 0 0 0 0 0 0 0 0 0 0 0 0 127 0" result="hardAlpha"/>
<feOffset dy="4"/>
<feGaussianBlur stdDeviation="2"/>
<feComposite in2="hardAlpha" operator="out"/>
<feColorMatrix type="matrix" values="0 0 0 0 0 0 0 0 0 0 0 0 0 0 0 0 0 0 0.25 0"/>
<feBlend mode="normal" in2="BackgroundImageFix" result="effect1_dropShadow_1_2"/>
<feBlend mode="normal" in="SourceGraphic" in2="effect1_dropShadow_1_2" result="shape"/>
</filter>
</defs>
</svg>
